<?xml version="1.0" encoding="utf-8"?>
<!-- Generator: Adobe Illustrator 23.0.0, SVG Export Plug-In . SVG Version: 6.00 Build 0)  -->
<svg version="1.1" xmlns="http://www.w3.org/2000/svg" xmlns:xlink="http://www.w3.org/1999/xlink" x="0px" y="0px"
	 viewBox="0 0 841.89 595.28" style="enable-background:new 0 0 841.89 595.28;" xml:space="preserve">
<style type="text/css">
	.st0{opacity:0.32;}
	.st1{fill:#E9C590;}
	.st2{fill:#393937;}
	.st3{fill:#181818;}
	.st4{fill:#232323;}
	.st5{fill:#849FD2;}
	.st6{fill:#603620;}
	.st7{fill:#5A4832;}
	.st8{fill:#D8D8D8;}
	.st9{fill:#B7DA9D;}
	.st10{fill:#E2E2E2;}
	.st11{fill:#A4D17A;}
	.st12{fill:#CEBF79;}
	.st13{fill:#DC7B7B;}
	.st14{fill:#90B1C6;}
</style>
<g id="Layer_1">
</g>
<g id="Layer_2">
	<g class="st0">
		<path class="st1" d="M153.01,193.78c-8.08-6.28-8.16-19.26-2.49-27.78c5.67-8.52,15.46-13.33,25.17-16.53
			c36.76-12.11,80.47-7.62,110.22-32.38c5.9-4.91,10.98-10.81,17.32-15.13c11.71-7.97,26.48-9.75,40.63-10.51
			c17.43-0.93,34.93-0.66,52.32,0.8c6.23,0.52,12.68,1.28,18.02,4.53c11.16,6.8,13.72,22.1,11.8,35.03s-7.15,25.4-7.11,38.47
			c0.07,20.74,13.38,39.15,28.47,53.38s32.63,26.05,45.47,42.34s20.31,39.16,11.5,57.94c-5.95,12.68-19.02,24.3-15.35,37.82
			c1.53,5.66,5.82,10.08,9.96,14.24c10.68,10.74,21.35,21.48,32.03,32.21c6.05,6.09,12.36,12.6,14.44,20.93
			c2.65,10.56-2.21,21.74-9.28,30.02c-6.48,7.59-14.89,13.51-24.21,17.07c-22.06,8.42-46.8,3.21-69.45-3.45
			c-34.38-10.11-68.3-23.45-104.03-26.07c-38.16-2.8-75.98,6.8-113.86,12.21c-34.61,4.94-69.73,6.38-104.63,4.3
			c-12.17-0.72-25.69-2.57-33.39-12.02c-5.4-6.62-6.7-15.65-6.83-24.19c-0.28-19.16,4.46-38.36,13.61-55.2
			c18.08-33.24,53.28-58.52,58.18-96.04c1.82-13.92-0.9-28.18,1.26-42.05c1.21-7.75,3.92-15.27,4.38-23.1
			c0.46-7.83-1.92-16.53-8.54-20.73"/>
	</g>
	<g>
		<path class="st1" d="M188.48,403.97c2.65,0.44,5.14-1.18,7.53-2.42c4-2.07,8.41-3.18,12.78-4.27c4.96-1.24,9.96-2.48,15.07-2.59
			c0.5-0.01,1.03,0,1.47,0.23c1.51,0.79,0.84,3.04,0.18,4.6c-1.61,3.79-1.91,8.12-0.86,12.1c0.23,0.88,0.53,1.78,0.37,2.67
			c-0.23,1.3-1.42,2.27-2.69,2.65s-2.62,0.31-3.95,0.26c-8.94-0.3-17.94,1.16-26.33,4.27c-1.54,0.57-3.47,1.13-4.66-0.01
			c-0.72-0.69-0.87-1.79-0.81-2.78c0.25-4.14,3.22-8.56,0.99-12.06"/>
	</g>
	<g>
		<g>
			<path class="st2" d="M186.74,408.05c3.22,0,3.22-5,0-5C183.53,403.05,183.52,408.05,186.74,408.05L186.74,408.05z"/>
		</g>
	</g>
	<g>
		<path class="st2" d="M190.27,422.96c-0.94-5.25-1.2-10.61-0.76-15.93c0.13-1.6,0.28-3.37-0.68-4.66c-1-1.35-2.85-1.68-4.51-1.91
			c-5.89-0.81-11.77-1.62-17.66-2.43c-0.52-0.07-1.08-0.13-1.52,0.14c-0.39,0.24-0.59,0.68-0.78,1.1
			c-1.82,4.12-3.64,8.25-5.46,12.37c-1.04,2.35-2.08,4.7-2.96,7.12c-2.67,7.31-3.86,15.11-4.05,22.89c-0.05,2.21,0,4.52,1.08,6.45
			c1.08,1.92,3.51,3.27,5.54,2.41c1.64-0.69,2.46-2.47,3.29-4.04c4.27-8.12,12.35-14.14,21.36-15.89c1.39-0.27,2.95-0.53,3.78-1.68
			c1.31-1.8-0.01-4.65,1.34-6.43"/>
	</g>
	<g>
		<path class="st3" d="M223.91,393.51c-0.66-2.27,0.94-4.7,3.04-5.79c2.1-1.08,4.56-1.15,6.92-1.19c4.77-0.08,9.54-0.17,14.3-0.25
			c0.71-0.01,1.46-0.03,2.07-0.39c0.85-0.49,1.24-1.48,1.55-2.41c1.95-5.8,2.94-11.91,2.93-18.03c-0.01-6.17-1.03-12.41,0.11-18.48
			c1.06-5.7,4.06-11.01,8.39-14.87c1.18,3.27,2.38,6.57,4.31,9.46c1.48,2.23,3.36,4.16,5.23,6.08c4.66,4.79,9.33,9.59,13.99,14.38
			c1.72,1.77,3.47,3.59,4.45,5.85c2.36,5.45-0.36,11.64-3.03,16.95c-4.27,8.47-8.54,16.94-12.81,25.41c-0.41,0.8-0.83,1.63-1.53,2.2
			c-0.96,0.79-2.27,0.95-3.5,1.09c-14.77,1.63-29.79,3.26-44.43,0.67c-1.05-0.19-2.2-0.45-2.85-1.3c-0.69-0.91-0.58-2.18-0.44-3.31
			c0.74-5.82,1.48-11.63,2.22-17.45"/>
	</g>
	<g>
		<path class="st1" d="M307.81,430.12c0.09,4.22,1.13,8.35,2.17,12.44c2.46,9.68,4.91,19.35,7.37,29.03
			c0.34,1.35,0.85,2.89,2.15,3.39c0.92,0.35,1.94,0.06,2.88-0.23c3.11-0.97,6.27-1.97,9.01-3.73s5.07-4.42,5.71-7.62
			c0.37-1.89,0.15-3.84-0.13-5.74c-1.11-7.49-3.02-14.95-2.64-22.51c0.14-2.81,0.53-5.87-1.04-8.2c-1.62-2.39-4.74-3.16-7.59-3.64
			c-3.22-0.55-6.53-0.99-9.72-0.34c-3.2,0.65-6.3,2.59-7.55,5.6"/>
	</g>
	<g>
		<path class="st4" d="M266.26,276.74c3.08,0.31,6.27,0.66,8.96,2.19c1.61,0.92,2.97,2.22,4.58,3.12
			c4.86,2.72,10.98,1.32,16.36,2.78c5.08,1.38,9.08,5.17,12.86,8.83c0.82,0.79,1.66,1.63,2.02,2.71c1.07,3.27-2.66,5.96-3.97,9.15
			c-1.1,2.69-0.38,5.8,0.93,8.39c1.31,2.59,3.18,4.87,4.54,7.43c2.47,4.65,3.17,10.01,4.52,15.1c2.76,10.49,8.29,20,12.29,30.08
			c7.6,19.17,9.55,40.54,5.55,60.78c-0.31,1.58-0.76,3.31-2.09,4.21c-1.15,0.77-2.64,0.72-4.02,0.64
			c-5.61-0.33-11.21-0.66-16.82-0.99c-2.35-0.14-5.05-0.46-6.37-2.41c-0.85-1.26-0.9-2.88-0.89-4.39
			c0.05-6.08,0.47-12.16,1.28-18.19c0.44-3.26,0.98-6.6,0.35-9.83c-0.53-2.7-1.86-5.18-3.21-7.58c-9-16.02-21.15-29.26-33.23-43.11
			c-4.52-5.19-7.77-12.09-11.38-17.96c-3.6-5.86-6.02-12.71-5.33-19.56c0.51-5.08,2.68-9.83,4.82-14.47
			c2.63-5.7,5.26-11.4,7.89-17.1"/>
	</g>
	<g>
		<path class="st1" d="M282.46,172.99c-0.67-3.26,1.45-6.35,2.45-9.52c0.89-2.83,0.87-5.95-0.05-8.77
			c-0.56-1.73-1.45-3.34-2.04-5.05c-0.6-1.72-0.89-3.64-0.24-5.34c0.65-1.7,2.47-3.04,4.24-2.66c0.94,0.2,1.77,0.84,2.73,0.86
			c1.52,0.04,2.65-1.44,3.12-2.89c1.14-3.46,0.43-7.91,3.28-10.17c0.86-0.69,1.94-1.04,2.9-1.57c1.79-0.97,3.22-2.53,5.03-3.45
			c2.33-1.18,5.06-1.18,7.67-1.17c1.39,0.01,2.85,0.04,4.06,0.71c1.87,1.04,2.67,3.32,2.92,5.45c0.49,4.22-0.47,8.82,1.63,12.52
			c0.8,1.4,2,2.56,2.67,4.03c0.68,1.46,0.64,3.49-0.69,4.39c-0.38,0.26-0.85,0.41-1.18,0.73c-0.47,0.45-0.6,1.14-0.65,1.79
			c-0.19,2.51,0.46,5.03,0.29,7.54c-0.17,2.51-1.54,5.27-4.02,5.75c-1.71,0.33-3.67-0.49-5.15,0.45c-0.66,0.42-1.08,1.12-1.48,1.79
			c-1.58,2.68-3.16,5.36-4.74,8.03c-0.85,1.44-1.73,3-1.59,4.67c0.17,2.04,1.85,3.64,3.65,4.6c1.81,0.96,3.51,1.69,5.29,2.69
			c2.09,1.18,2.89,4.42,4.51,6.19c1.74,1.9,3.06,5.54,4.8,7.44c2.19,2.39-2.92-0.94-2.78,2.3c0.15-3.77-1.44-4.17-4.7-6.05
			c-0.84-0.49,2.01,0.31,1.25-0.29c-1.02-0.8-2.17-2.53-2.98-3.55c-1.78-2.27-0.52-3.34-3.26-4.22c-2.9-0.93-5.22-1.3-8.06-2.4
			c-6.98-2.69-11.02-11.45-18.43-12.48c-0.55-0.08-0.54-1.9-0.42-2.44"/>
	</g>
	<g>
		<path class="st1" d="M330.76,200.49c-0.6-2.21-0.55-6.67,1.71-6.32c1.77,0.27,2.32,2.81,4.04,3.33c0.03-0.63,0.05-1.26,0.08-1.89
			c0.04-0.86,0.1-1.79,0.66-2.45c1.2-1.41,3.66-0.37,4.55,1.25c0.89,1.62,0.91,3.59,1.66,5.28c0.72,1.62,2.09,2.94,2.54,4.66
			c0.5,1.93-0.26,4.01,0.19,5.96c0.26,1.1,0.9,2.09,1.15,3.2c0.63,2.76-1.21,5.41-2.92,7.65c-3.26,4.27-6.46,8.63-8.82,13.46
			c-1.21,2.47-2.18,5.05-3.43,7.51c-2.93,5.76-7.65,10.93-13.82,12.82c-0.59-2.96-0.12-6.02,0.35-9.01c0.45-2.85,0.9-5.71,1.34-8.56
			c0.31-1.98,0.62-3.97,1.24-5.88c0.65-2.03,1.64-3.94,2.91-5.65c2.61-3.5,6.58-6.55,6.79-10.91c0.08-1.78-0.51-3.52-0.7-5.3
			C329.96,206.66,329.95,203.39,330.76,200.49"/>
	</g>
	<g>
		<path class="st5" d="M266.62,245.95c-2.71,2.51-5.56,4.85-8.55,7.02c-2.02,1.46-4.25,2.9-6.74,2.95c-3.3,0.06-6.1-2.29-8.54-4.51
			c-1.98-1.8-3.97-3.59-5.95-5.39c-3.48-3.15-7.28-7.17-6.5-11.8c0.48-2.82,2.58-5.06,4.62-7.07c5.66-5.6,11.59-11.07,15.82-17.82
			c3.12-4.98,5.24-10.53,8.29-15.56c3.05-5.02,7.36-9.68,13.01-11.27c1.77-0.5,3.68-0.71,5.19-1.76c2.53-1.76,3.6-5.62,6.63-6.17
			c2.56-0.47,4.71,1.79,6.5,3.68c3.13,3.32,6.78,6.15,10.78,8.36c0.82,0.45,1.74,0.89,2.64,0.68c0.58-0.13,1.07-0.51,1.64-0.69
			c0.77-0.23,1.6-0.07,2.37,0.16c7.09,2.14,11.22,9.31,14.64,15.88c1.35,2.59,2.7,5.19,4.05,7.78c2.51,4.81,5.04,10.58,2.6,15.42
			c-1.09,2.17-3.11,3.9-3.65,6.27c-0.98,4.35-1.55,8.32-2.33,12.71c-0.35,1.95-0.74,5.69-2.02,7.2c-2.19,2.6-0.33,3.27-2.52,5.87
			c-0.99,1.18-2.01,2.41-2.38,3.91c-0.33,1.34-0.09,2.74,0.07,4.11c0.9,7.87-1.09,16.04-5.51,22.61c-1.39,2.06-3.08,4.03-5.34,5.05
			s-5.19,0.89-6.94-0.88c-0.98-0.99-1.49-2.35-2.33-3.46c-3.21-4.22-9.6-3.39-14.88-3.93c-5.14-0.52-9.93-2.72-14.62-4.89
			c-0.58-0.27-1.19-0.57-1.47-1.14c-0.53-1.08,0.45-2.25,1.28-3.12c4.57-4.75,7.09-11.22,7.87-17.77
			c0.78-6.55-0.09-13.19-1.59-19.61c-0.87-3.74-1.96-7.43-3.25-11.05c-0.88-2.47-2.4-5.32-5.03-5.44c-1.27-0.06-2.46,0.58-3.55,1.24
			c-1.86,1.13-3.69,2.43-4.93,4.22c-1.24,1.79-1.8,4.18-0.96,6.19c0.41,0.99,1.12,1.83,1.84,2.63c2.66,2.98,5.51,5.78,8.54,8.38
			L266.62,245.95z"/>
	</g>
	<g>
		<path class="st1" d="M265.49,246.67c5.34,2.28,10.81,4.6,16.61,4.95c2.5,0.15,5-0.06,7.49-0.28c5.32-0.46,10.64-0.92,15.96-1.37
			c1.49-0.13,3.48,0.1,3.75,1.57c0.32,1.76-2.18,2.48-3.97,2.44c-2-0.05-4.01-0.1-6.01-0.14c-0.64-0.02-1.37,0-1.8,0.48
			c-1,1.11,0.78,2.58,2.21,3.01c4.84,1.47,9.67,2.94,14.51,4.4c1.98,0.6,3.95,0.84,2.94,2.65c-2.39,4.31-8.01,1.48-12.51-0.53
			c-1.11,0.98,0.39,2.72,1.8,3.16s3.29,1.06,3.23,2.54c-2.31,0.64-4.75,0.84-7.13,0.59c2.15,0.3,2.49,3.78,0.7,5.01
			c-1.79,1.22-4.38,0.42-5.86-1.17c-0.66,0.98,0.52,2.03,0.46,3.21c-0.1,1.85-3.67,0.74-5.3-0.15s-2.91-2.29-4.27-3.55
			c-8.29-7.72-19.78-10.72-29.85-15.92c-1.34-0.69-3.65-2.1-3.08-3.5c0.18-0.45,1.33-0.68,1.7-0.99c2.07-1.79,4.14-3.58,6.21-5.37"
			/>
	</g>
	<g>
		<path class="st6" d="M253.86,118.02c2.6-0.48,5.3-0.43,7.89,0.15c1.92,0.43,3.81,1.14,5.77,1.1c1.47-0.03,2.89-0.48,4.29-0.91
			c7.17-2.19,14.5-3.86,21.91-5c4.52-0.69,9.21-1.17,13.61,0.07c4.4,1.25,8.48,4.59,9.34,9.08c0.06,0.3,0.1,0.63-0.03,0.91
			c-0.12,0.26-0.36,0.44-0.6,0.59c-3.14,1.89-7.25-0.1-10.83,0.71c-1.56,0.35-2.94,1.22-4.29,2.08c-1.54,0.98-3.08,1.95-4.62,2.93
			c-0.61,0.39-1.24,0.79-1.67,1.38c-1.01,1.36-0.67,3.24-0.81,4.92c-0.2,2.4-1.33,6.4-3.66,6.97c-0.73,0.18-3-1.65-3.74-1.54
			c-3.41,0.52-4.45,2.81-4.13,6.24c0.18,1.97,1.96,5.12,2.59,6.99c0.73,2.16,1.46,4.86,1.15,7.12c-0.3,2.19-0.9,5.37-3.07,5.76
			c-1.59,0.29-5.53-1.76-6.57-2.99c-2.07-2.44-2.54-5.82-3.94-8.69c-1.86-3.84-5.5-6.76-9.65-7.75c-1.42-0.34-2.9-0.47-4.27-0.98
			c-1.37-0.51-2.66-1.53-2.99-2.96c-0.41-1.76,0.74-3.46,1.7-4.99c0.97-1.53,1.8-3.54,0.83-5.07c-0.37-0.58-0.95-1-1.56-1.31
			c-2.34-1.23-5.11-1.23-7.75-1.4c-5.92-0.39-11.77-1.77-17.23-4.08c-1.88-0.79-3.95-2.03-4.16-4.05c-0.2-1.91,1.41-3.53,3.08-4.46
			c1.67-0.93,3.59-1.54,4.91-2.93c1.57-1.66,2.06-4.22,3.9-5.57c1.85-1.35,4.5-0.99,6.49,0.14c1.99,1.14,3.51,2.92,5.17,4.49
			c1.66,1.57,3.64,3.02,5.92,3.2"/>
	</g>
	<g>
		<path class="st1" d="M300.66,502.12c5.89-4.96,12.06-10.06,19.53-11.94c7.46-1.88,14.59-8.91,22.27-8.4
			c14.18,0.96,29.12,6.89,43.3,7.9c5.33,0.38,10.94,1.42,14.92,4.98s5.49,10.33,1.88,14.27c-2.04,2.23-5.2,3.1-8.22,3.29
			c-10.75,0.68-20.94-5.77-31.7-5.43c-7.24,0.23-13.98,3.49-20.93,5.52c-12.19,3.55-25.53,3.23-37.43-1.21
			c-2.19-0.82-4.51-1.94-5.48-4.06c-0.97-2.12,0.46-5.31,2.79-5.07"/>
	</g>
	<g>
		<path class="st2" d="M376.81,479.78c-6.85-8.35-21.7-2.94-30.12-9.7c-2.26-1.82-4.07-4.52-6.92-5.09
			c-2.02-0.41-4.06,0.39-5.95,1.2c-5.6,2.42-11.35,5.44-14.49,10.66c-3.15,5.23-2.42,13.21,2.96,16.07
			c3.8,2.03,8.43,0.96,12.73,1.17c5.02,0.24,9.78,2.28,14.77,2.86c11.2,1.29,22.83-5.77,26.84-16.31"/>
	</g>
	<path class="st7" d="M689.71,533.88L689.71,533.88c-2.22,0-4.03-1.81-4.03-4.03v-403.2c0-2.22,1.81-4.03,4.03-4.03l0,0
		c2.22,0,4.03,1.81,4.03,4.03v403.2C693.74,532.07,691.93,533.88,689.71,533.88z"/>
	<path class="st7" d="M807.31,219.38H702.86c-6.6,0-12-5.4-12-12v-64.13c0-6.6,5.4-12,12-12h104.45c6.6,0,12,5.4,12,12v64.13
		C819.31,213.98,813.91,219.38,807.31,219.38z"/>
	<path class="st7" d="M675.98,323.64H562.32c-6.6,0-12-5.4-12-12V159.38c0-6.6,5.4-12,12-12h113.66c6.6,0,12,5.4,12,12v152.26
		C687.98,318.24,682.58,323.64,675.98,323.64z"/>
	<path class="st8" d="M669.07,314.42h-96.38c-6.6,0-12-5.4-12-12V169.75c0-6.6,5.4-12,12-12h96.38c6.6,0,12,5.4,12,12v132.67
		C681.07,309.02,675.67,314.42,669.07,314.42z"/>
	<path class="st8" d="M800.4,212.47h-91.2c-6.6,0-12-5.4-12-12v-50.88c0-6.6,5.4-12,12-12h91.2c6.6,0,12,5.4,12,12v50.88
		C812.4,207.07,807,212.47,800.4,212.47z"/>
	<g>
		<path class="st9" d="M689.83,527.72c-6.1-2.47-10.8-8.12-12.13-14.57c-0.39-1.89-0.52-3.87-1.36-5.61
			c-1.21-2.51-3.69-4.11-6.06-5.58c-4.93-3.07-9.87-6.14-14.8-9.22c-7.89-4.91-16.31-9.98-25.6-10.02
			c-2.07-0.01-4.24,0.28-5.96,1.44c-3.45,2.34-3.83,7.57-1.89,11.26c1.94,3.69,5.58,6.14,9.17,8.26c3.59,2.12,7.38,4.14,10.01,7.37
			c5.68,6.99,4.62,17.94,10.81,24.47c4.53,4.78,11.65,5.83,18.22,6.24c11.71,0.74,23.49,0.34,35.12-1.2
			c2.34-0.31,4.7-0.67,6.91-1.51c3.3-1.26,6.11-3.52,8.7-5.91c13.98-12.92,23.19-30.87,25.54-49.76c0.18-1.42,0.3-2.92-0.29-4.21
			c-0.48-1.05-1.39-1.85-2.35-2.49c-5.43-3.6-13.26-2.5-18.02,1.95c-4.76,4.45-6.47,11.64-4.98,17.98c0.35,1.5,0.87,3.02,0.62,4.54
			c-0.81,5.01-7.86,5.18-12.31,7.61c-4.21,2.29-6.27,7.06-8.73,11.17s-6.47,8.22-11.22,7.61"/>
	</g>
	<g>
		<g>
			<path class="st10" d="M635.54,484.2c1.86,2.97,3.74,5.77,6.43,8.06c1.37,1.17,2.93,2.11,4.26,3.33c2.38,2.18,2.88,4.23,3.71,7.21
				c1.59,5.73,4.05,10.08,2.5,16.31c-1.03,4.16-2.75,7.97-3.22,12.27c-0.09,0.8,1.16,0.79,1.25,0c0.59-5.4,3.37-10.25,3.91-15.64
				c0.49-4.96-2.09-8.62-3.23-13.27c-0.88-3.57-1.67-5.74-4.55-8.19c-3.95-3.37-7.16-6.23-9.97-10.71
				C636.2,482.88,635.11,483.51,635.54,484.2L635.54,484.2z"/>
		</g>
	</g>
	<g>
		<g>
			<path class="st10" d="M674.8,541.26c-1.45-4.21-2.57-8.8-4.52-12.82c-1.74-3.58-4.93-6.05-7.91-8.56
				c-3.39-2.85-6.96-5.41-10.53-8.04c-6.28-4.63-2.07-14.85-0.67-21.32c0.17-0.78-1.04-1.12-1.21-0.33
				c-1.09,5.05-3.63,11.27-3.3,16.45c0.22,3.34,2.75,5,5.26,6.78c4.78,3.39,9.72,6.97,13.88,11.14c4.44,4.46,5.8,11.21,7.8,17.03
				C673.86,542.35,675.07,542.02,674.8,541.26L674.8,541.26z"/>
		</g>
	</g>
	<g>
		<g>
			<path class="st10" d="M686.15,541.93c4.48-9.14,15.4-9.86,22.71-15.7c6.1-4.86,8.86-12.43,10.48-19.81
				c0.17-0.78-1.03-1.12-1.21-0.33c-2.2,10.01-6.5,18.14-16.04,22.73c-6.53,3.14-13.63,5.55-17.03,12.48
				C684.72,542.02,685.8,542.65,686.15,541.93L686.15,541.93z"/>
		</g>
	</g>
	<g>
		<g>
			<path class="st10" d="M719.45,506.32c0.08-0.26,0.15-0.52,0.23-0.79c0.23-0.77-0.98-1.1-1.21-0.33
				c-0.08,0.26-0.15,0.52-0.23,0.79C718.02,506.76,719.23,507.09,719.45,506.32L719.45,506.32z"/>
		</g>
	</g>
	<g>
		<g>
			<path class="st10" d="M733.52,474.48c-2.38,1.81-3.36,4.13-3.61,7.11c-0.52,6.24,0.35,12.18-1.08,18.43
				c-1.2,5.23-4.11,9.85-5,15.16c-0.98,5.84-0.48,11.76-3.71,17c-0.42,0.69,0.66,1.32,1.08,0.63c2-3.24,2.71-6.68,3.11-10.42
				c0.59-5.58,1.51-10.13,3.59-15.35c1.66-4.16,2.71-8.47,3.15-12.92c0.54-5.45-1.86-14.76,3.11-18.55
				C734.78,475.08,734.16,473.99,733.52,474.48L733.52,474.48z"/>
		</g>
	</g>
	<circle class="st11" cx="642.87" cy="166.07" r="3.7"/>
	<circle class="st12" cx="654.65" cy="166.07" r="3.7"/>
	<circle class="st13" cx="667.53" cy="166.07" r="3.7"/>
	<circle class="st11" cx="709.22" cy="148.34" r="3.7"/>
	<circle class="st12" cx="721.01" cy="148.34" r="3.7"/>
	<circle class="st13" cx="733.89" cy="148.34" r="3.7"/>
	<rect x="560.5" y="174.46" class="st14" width="120.58" height="38.78"/>
	<rect x="697.21" y="157.75" class="st14" width="115.19" height="38.78"/>
	<path class="st14" d="M649.2,234.74h-47.23c-1.48,0-2.69-1.21-2.69-2.69v-0.77c0-1.48,1.21-2.69,2.69-2.69h47.23
		c1.48,0,2.69,1.21,2.69,2.69v0.77C651.89,233.53,650.68,234.74,649.2,234.74z"/>
	<path class="st14" d="M615.22,242.81h-13.25c-1.48,0-2.69-1.21-2.69-2.69v0c0-1.48,1.21-2.69,2.69-2.69h13.25
		c1.48,0,2.69,1.21,2.69,2.69v0C617.9,241.6,616.69,242.81,615.22,242.81z"/>
	<path class="st14" d="M642.12,250.44h-41.14c-0.94,0-1.7-0.77-1.7-1.7v0c0-0.94,0.77-1.7,1.7-1.7h41.14c0.94,0,1.7,0.77,1.7,1.7v0
		C643.82,249.67,643.06,250.44,642.12,250.44z"/>
	<path class="st14" d="M604.5,286.29h-27.54c-1.48,0-2.69-1.21-2.69-2.69v-0.77c0-1.48,1.21-2.69,2.69-2.69h27.54
		c1.48,0,2.69,1.21,2.69,2.69v0.77C607.19,285.08,605.98,286.29,604.5,286.29z"/>
	<path class="st14" d="M590.21,294.35h-13.25c-1.48,0-2.69-1.21-2.69-2.69l0,0c0-1.48,1.21-2.69,2.69-2.69h13.25
		c1.48,0,2.69,1.21,2.69,2.69l0,0C592.9,293.14,591.69,294.35,590.21,294.35z"/>
	<path class="st14" d="M600.44,301.98h-24.47c-0.94,0-1.7-0.77-1.7-1.7l0,0c0-0.94,0.77-1.7,1.7-1.7h24.47c0.94,0,1.7,0.77,1.7,1.7
		l0,0C602.15,301.22,601.38,301.98,600.44,301.98z"/>
	<path class="st14" d="M638.1,285.78h27.54c1.48,0,2.69-1.21,2.69-2.69v-0.77c0-1.48-1.21-2.69-2.69-2.69H638.1
		c-1.48,0-2.69,1.21-2.69,2.69v0.77C635.41,284.57,636.62,285.78,638.1,285.78z"/>
	<path class="st14" d="M652.39,293.85h13.25c1.48,0,2.69-1.21,2.69-2.69l0,0c0-1.48-1.21-2.69-2.69-2.69h-13.25
		c-1.48,0-2.69,1.21-2.69,2.69l0,0C649.7,292.64,650.91,293.85,652.39,293.85z"/>
	<path class="st14" d="M642.16,301.48h24.47c0.94,0,1.7-0.77,1.7-1.7l0,0c0-0.94-0.77-1.7-1.7-1.7h-24.47c-0.94,0-1.7,0.77-1.7,1.7
		l0,0C640.45,300.71,641.22,301.48,642.16,301.48z"/>
</g>
</svg>
